<?xml version="1.0" standalone="no"?>
<!DOCTYPE svg PUBLIC "-//W3C//DTD SVG 20010904//EN"
 "http://www.w3.org/TR/2001/REC-SVG-20010904/DTD/svg10.dtd">
<svg version="1.0" xmlns="http://www.w3.org/2000/svg"
 width="563.000000pt" height="317.000000pt" viewBox="0 0 563.000000 317.000000"
 preserveAspectRatio="xMidYMid meet">

<g transform="translate(0.000000,317.000000) scale(0.100000,-0.100000)"
fill="#000000" stroke="none">
<path d="M0 1585 l0 -1585 120 0 120 0 0 355 0 355 155 0 155 0 0 -355 0 -355
868 0 869 0 13 25 c8 14 29 35 47 46 46 28 61 58 38 75 -12 9 -15 20 -10 43 7
34 41 81 58 81 7 1 30 17 52 36 39 35 39 36 40 108 0 74 14 110 39 100 10 -4
10 -14 0 -54 -20 -77 -24 -114 -14 -130 8 -12 10 -12 10 4 0 45 32 133 53 146
20 12 21 12 8 -3 -7 -9 -10 -24 -7 -34 8 -19 22 -8 28 22 2 12 6 16 10 9 4 -6
-2 -27 -13 -48 -11 -20 -17 -41 -14 -46 4 -6 2 -10 -4 -10 -5 0 -12 8 -14 18
-3 11 -5 7 -6 -10 0 -15 -5 -38 -11 -52 -11 -30 -7 -32 18 -11 9 9 37 30 62
48 25 18 52 47 62 65 10 20 19 29 23 22 4 -6 -5 -29 -20 -52 -34 -51 -138
-158 -154 -158 -7 0 -11 -10 -9 -22 2 -16 -7 -28 -32 -45 -19 -12 -40 -27 -47
-33 -8 -6 -22 -6 -42 1 -33 11 -40 24 -19 32 7 3 9 6 3 6 -5 0 -16 -3 -24 -8
-11 -7 -11 -13 -1 -32 11 -20 9 -26 -19 -51 -21 -18 -26 -28 -16 -28 21 0 30
-27 15 -45 -11 -13 -8 -15 17 -15 16 0 34 5 41 12 8 8 15 8 25 -1 11 -8 160
-11 579 -11 546 1 564 2 565 20 1 10 -4 18 -10 16 -7 -1 -9 -1 -4 1 4 3 5 9 1
14 -12 20 17 7 51 -22 20 -18 38 -29 41 -26 9 9 -24 76 -45 89 -12 7 -21 17
-21 22 0 4 7 3 15 -4 9 -7 15 -8 15 -2 0 6 -19 24 -42 41 -25 18 -35 31 -26
31 9 0 20 -4 23 -10 3 -5 14 -10 22 -10 14 0 13 4 -5 20 -26 25 -27 30 -6 30
8 0 12 -4 9 -10 -3 -5 -2 -10 3 -10 17 0 22 13 10 27 -8 10 -8 12 4 8 11 -5
19 9 32 56 19 66 15 104 -12 127 -9 7 -11 10 -3 6 15 -8 9 21 -16 70 -12 23
-13 30 -2 37 8 4 11 9 9 11 -3 2 -18 10 -35 19 -21 10 -29 21 -27 35 2 10 3
125 2 254 -1 235 -1 235 -35 355 -33 117 -71 303 -64 309 2 2 47 -15 99 -39
89 -39 169 -65 204 -65 9 0 22 13 30 29 14 26 14 30 0 35 -9 3 -21 3 -27 -1
-20 -12 -48 -10 -43 3 5 13 -28 27 -61 24 -11 0 -24 3 -27 9 -4 6 -12 8 -19 5
-7 -2 -22 4 -32 16 -18 20 -18 20 16 16 30 -3 31 -2 15 9 -10 8 -24 11 -32 8
-11 -4 -10 2 3 25 14 25 15 34 6 43 -7 7 -16 9 -20 5 -4 -4 -2 -10 5 -15 9 -5
7 -13 -7 -28 -14 -15 -17 -23 -8 -32 14 -14 2 -14 -22 -1 -36 19 -34 41 7 79
42 39 92 117 92 144 0 24 -69 97 -92 97 -29 0 -58 19 -58 38 0 34 -48 118 -85
150 -53 47 -75 54 -204 61 -100 6 -116 10 -131 29 l-18 21 -5 -29 c-5 -21 -12
-28 -26 -27 -15 1 -17 5 -11 18 10 18 9 100 0 94 -4 -2 -7 10 -7 28 -2 64 -9
122 -16 125 -20 7 -25 -3 -30 -57 -4 -37 -1 -78 7 -112 14 -52 9 -79 -14 -79
-13 0 -50 66 -50 89 0 16 -6 21 -27 21 -26 0 -26 1 -7 15 19 15 19 15 -1 31
-16 14 -17 16 -2 11 11 -4 17 -1 17 8 0 8 5 15 10 15 20 0 9 26 -17 42 -24 15
-25 18 -8 18 17 0 18 2 5 11 -12 9 -12 10 3 5 10 -3 20 -6 23 -6 2 0 1 -7 -2
-15 -5 -11 1 -15 19 -15 29 0 37 20 37 99 0 52 1 53 18 38 22 -21 33 -22 26
-3 -3 8 8 19 28 29 44 21 51 2 12 -30 -24 -19 -26 -23 -10 -23 16 0 18 -5 13
-37 -4 -20 -3 -42 2 -47 4 -6 15 -32 25 -58 10 -26 31 -59 47 -73 31 -26 59
-33 59 -15 0 6 -8 10 -18 10 -22 0 -43 22 -66 67 -20 40 -21 53 -1 27 14 -18
15 -17 10 11 -5 26 -4 27 4 8 16 -36 71 -54 115 -37 12 5 9 11 -15 31 -30 26
-69 88 -50 82 5 -2 20 -19 33 -38 30 -44 54 -55 36 -16 -9 21 -9 28 1 34 11 7
10 16 -5 46 -9 20 -23 39 -31 42 -7 3 -13 10 -13 17 0 6 -9 22 -20 36 -21 27
-25 40 -11 40 5 0 19 -16 31 -35 12 -19 26 -35 32 -35 6 0 3 11 -6 24 -14 23
-14 25 2 29 13 3 10 7 -12 16 -27 11 -65 48 -66 64 0 5 6 5 13 0 6 -4 19 -6
27 -5 8 1 43 -9 78 -22 34 -14 62 -21 62 -16 0 10 -130 63 -138 56 -2 -3 -30
17 -61 45 -30 27 -73 55 -93 61 -21 6 -43 17 -49 24 -16 20 76 -14 119 -43 20
-13 37 -21 40 -19 6 7 -50 55 -64 56 -6 0 -19 10 -30 21 -36 41 -70 48 -142
32 -50 -12 -79 -13 -126 -5 -34 5 -63 7 -66 3 -3 -3 -21 -13 -40 -22 -20 -9
-51 -29 -69 -45 -18 -15 -54 -38 -80 -50 -49 -24 -103 -63 -86 -64 6 0 30 13
55 30 50 33 62 33 31 -1 -12 -13 -21 -28 -21 -34 0 -6 -11 -22 -25 -35 -14
-13 -25 -28 -25 -34 0 -5 13 3 29 18 16 15 33 28 38 29 4 0 17 9 27 19 15 14
16 18 5 18 -8 0 -21 -6 -29 -12 -7 -7 4 9 25 35 42 52 96 99 138 118 31 14 32
14 40 -27 5 -27 3 -31 -25 -40 -18 -5 -34 -15 -36 -23 -3 -10 0 -12 12 -8 17
7 20 -1 10 -27 -3 -9 -9 -14 -13 -11 -9 5 -8 -26 2 -42 5 -7 0 -9 -13 -6 -11
3 -20 1 -20 -4 0 -9 23 -23 65 -39 18 -6 18 -8 3 -11 -14 -3 -16 -9 -9 -22 8
-15 5 -16 -24 -13 -38 4 -55 -13 -30 -32 15 -11 14 -13 -9 -24 -14 -6 -26 -19
-26 -28 0 -16 1 -16 19 0 15 14 19 14 24 3 3 -8 0 -20 -6 -26 -16 -16 0 -13
28 5 13 9 30 14 37 11 9 -4 6 -8 -7 -12 -25 -8 -58 -52 -50 -65 3 -6 15 -10
25 -10 22 0 44 -35 36 -56 -4 -11 -10 -12 -25 -4 -13 7 -22 7 -26 0 -9 -14
-21 -12 -39 6 -13 13 -16 13 -16 1 0 -8 -7 -20 -15 -27 -8 -7 -15 -17 -15 -23
0 -6 7 -4 16 5 15 15 20 12 61 -30 50 -53 48 -58 -36 -88 -141 -52 -249 -102
-292 -136 l-48 -38 -226 0 -225 0 0 595 0 595 -925 0 -925 0 0 -1585z m2845
1234 c53 -13 61 -22 70 -71 6 -33 5 -38 -11 -38 -17 0 -17 -1 -1 -13 12 -8 18
-28 20 -65 2 -42 5 -52 20 -52 14 0 16 6 12 33 -5 29 -5 31 10 16 14 -14 14
-19 0 -58 -8 -24 -12 -54 -9 -67 10 -40 -43 -23 -59 19 -3 9 -12 16 -19 15 -7
-2 -12 5 -10 15 2 9 -2 17 -8 17 -5 0 -10 -4 -10 -8 0 -4 -16 -6 -35 -4 -19 2
-35 6 -35 8 0 1 9 18 20 37 l21 35 -25 4 c-15 3 -31 -1 -40 -11 -20 -19 -20
-3 -1 23 12 16 18 17 46 7 51 -18 59 -15 46 14 -9 19 -20 25 -44 25 -23 0 -33
5 -33 15 0 9 9 15 25 15 32 0 32 14 0 28 -25 11 -47 49 -38 65 6 10 37 9 88
-4z m274 -110 c13 -11 21 -23 17 -26 -4 -4 -19 5 -34 20 -31 31 -19 36 17 6z
m-359 -9 c0 -5 -5 -10 -11 -10 -5 0 -7 5 -4 10 3 6 8 10 11 10 2 0 4 -4 4 -10z
m296 -108 c-7 -2 -13 -14 -13 -27 0 -14 4 -22 10 -18 6 3 7 1 3 -5 -4 -7 -14
-12 -22 -12 -17 0 -19 26 -1 33 6 3 2 6 -10 6 -16 1 -23 -6 -26 -26 -4 -26 -4
-26 -6 5 -1 26 4 34 23 42 13 5 27 14 31 20 6 9 10 9 16 -1 5 -9 4 -15 -5 -17z
m124 -68 c12 -19 20 -37 17 -40 -4 -4 -47 61 -47 72 0 11 10 1 30 -32z m-393
-4 c21 -8 33 -21 41 -45 11 -37 0 -48 -17 -16 -10 18 -59 44 -77 40 -21 -4
-26 2 -14 16 15 18 27 19 67 5z m100 -12 c-3 -8 -6 -5 -6 6 -1 11 2 17 5 13 3
-3 4 -12 1 -19z m-1678 -44 c2 -2 1 -10 -2 -18 -4 -9 -14 -12 -28 -9 -15 4
-20 3 -15 -5 4 -7 13 -12 20 -12 22 0 38 -27 31 -50 -8 -26 -48 -42 -81 -34
-36 9 -27 40 10 36 17 -2 25 1 21 7 -3 6 -12 11 -19 11 -41 0 -43 64 -3 80 19
7 54 4 66 -6z m-269 -54 c0 -49 -3 -61 -20 -70 -25 -13 -60 -4 -60 15 0 8 9
19 21 25 11 6 19 19 18 28 -4 45 1 62 21 62 18 0 20 -7 20 -60z m70 15 c0 -33
4 -45 15 -45 11 0 15 12 15 45 0 42 2 45 25 45 25 0 26 -2 23 -57 -3 -52 -6
-59 -31 -71 -23 -11 -34 -11 -57 -2 -30 13 -40 34 -40 93 0 33 3 37 25 37 23
0 25 -4 25 -45z m320 25 c0 -11 -7 -20 -15 -20 -11 0 -15 -12 -15 -45 0 -41
-2 -45 -25 -45 -23 0 -25 4 -25 44 0 25 -5 46 -12 48 -6 2 -12 12 -14 21 -2
14 7 17 52 17 47 0 54 -2 54 -20z m1874 -79 c23 -25 16 -36 -18 -27 -29 7 -61
83 -42 102 8 8 15 2 26 -22 9 -18 24 -42 34 -53z m-232 23 c-3 -16 -8 -22 -14
-16 -5 5 -6 21 -2 37 8 33 23 15 16 -21z m-117 26 c3 -5 1 -10 -4 -10 -6 0
-11 5 -11 10 0 6 2 10 4 10 3 0 8 -4 11 -10z m255 -40 c0 -13 -1 -13 -10 0 -5
8 -10 22 -10 30 0 13 1 13 10 0 5 -8 10 -22 10 -30z m-1956 -103 c16 -22 17
-30 7 -56 -32 -75 -141 -58 -141 23 0 73 87 95 134 33z m-172 16 c23 -21 24
-75 1 -96 -19 -16 -39 -20 -85 -18 -28 1 -28 2 -28 66 l0 65 47 0 c29 0 53 -6
65 -17z m328 -48 c0 -63 -1 -65 -25 -65 -24 0 -25 2 -25 65 0 63 1 65 25 65
24 0 25 -2 25 -65z m120 45 c0 -11 -7 -20 -14 -20 -11 0 -16 -14 -18 -47 -3
-40 -6 -48 -23 -48 -17 0 -20 8 -23 48 -2 33 -7 47 -18 47 -14 0 -19 21 -7 33
3 4 28 7 55 7 41 0 48 -3 48 -20z m39 -84 c14 -17 -9 -39 -33 -30 -19 7 -21
30 -3 37 20 9 24 8 36 -7z m1329 2 c7 -7 12 -20 12 -30 0 -17 -3 -16 -35 4
-28 19 -31 24 -17 30 24 10 27 9 40 -4z m-1673 -253 c-38 -86 -72 -211 -80
-295 -22 -234 105 -415 329 -471 l49 -12 111 115 c126 130 179 175 329 277 59
40 127 95 151 122 l45 50 15 -23 c10 -14 12 -26 6 -33 -5 -7 -7 -14 -4 -17 3
-3 0 -9 -7 -14 -8 -5 -10 -3 -4 7 5 8 -4 1 -18 -14 -15 -15 -27 -31 -27 -36 0
-12 -58 -51 -76 -51 -16 0 -82 -49 -67 -51 4 0 -2 -4 -14 -9 -13 -6 -23 -18
-23 -30 0 -11 -6 -20 -13 -20 -18 0 -67 -24 -67 -32 0 -5 -9 -8 -19 -8 -20 0
-76 -62 -125 -137 -16 -23 -39 -49 -52 -58 -13 -8 -24 -20 -24 -25 0 -13 -86
-100 -98 -100 -6 0 -12 -3 -14 -8 -6 -15 -109 -84 -135 -91 -30 -8 -44 -31
-19 -31 29 0 17 -16 -26 -35 -70 -31 -159 -56 -228 -66 -36 -5 -83 -12 -105
-15 -22 -3 -47 -8 -55 -11 -8 -4 -22 -5 -30 -4 -11 2 -12 0 -3 -9 11 -12 50
-13 206 -6 62 3 71 6 97 36 15 17 43 35 62 40 18 4 40 11 48 14 11 5 16 1 16
-14 0 -11 -5 -19 -12 -16 -6 2 -27 -8 -45 -23 -19 -16 -44 -31 -57 -35 -12 -4
-20 -11 -18 -15 3 -4 -17 -7 -44 -7 -28 1 -50 -2 -50 -6 0 -5 -16 -8 -35 -8
-19 0 -35 -4 -35 -10 0 -5 -8 -7 -17 -4 -16 5 -16 4 1 -10 14 -12 41 -15 110
-14 81 1 97 -2 144 -25 41 -22 52 -24 52 -12 0 8 9 15 20 15 16 0 19 -5 14
-32 -4 -27 0 -24 22 22 14 30 35 73 46 95 29 59 191 194 387 324 51 34 112 77
135 95 35 29 78 44 320 111 153 42 284 79 291 81 8 3 34 -38 70 -109 56 -111
58 -116 58 -197 l1 -84 -144 -63 c-993 -436 -1121 -480 -1364 -470 -147 6
-216 27 -325 101 -85 58 -138 121 -167 199 -30 81 -25 244 10 362 39 130 149
348 257 510 94 140 259 358 266 352 2 -2 -8 -30 -22 -62z m305 -91 c0 -2 -13
-4 -30 -4 -16 0 -30 4 -30 8 0 5 14 7 30 4 17 -2 30 -6 30 -8z m-132 -1 c-16
-2 -40 -2 -55 0 -16 2 -3 4 27 4 30 0 43 -2 28 -4z m-78 -63 c0 -5 -4 -10 -10
-10 -5 0 -10 5 -10 10 0 6 5 10 10 10 6 0 10 -4 10 -10z m100 -2 c0 -4 -7 -8
-15 -8 -8 0 -15 4 -15 8 0 5 7 9 15 9 8 0 15 -4 15 -9z m70 4 c0 -10 -36 -9
-46 1 -4 4 5 7 19 7 15 0 27 -4 27 -8z m35 -2 c3 -5 1 -10 -4 -10 -6 0 -11 5
-11 10 0 6 2 10 4 10 3 0 8 -4 11 -10z m105 -2 c0 -4 -7 -8 -15 -8 -8 0 -15 4
-15 8 0 5 7 9 15 9 8 0 15 -4 15 -9z m-310 -58 c0 -5 -4 -10 -10 -10 -5 0 -10
5 -10 10 0 6 5 10 10 10 6 0 10 -4 10 -10z m55 0 c3 -5 1 -10 -4 -10 -6 0 -11
5 -11 10 0 6 2 10 4 10 3 0 8 -4 11 -10z m55 -2 c0 -4 -9 -8 -20 -8 -11 0 -20
4 -20 8 0 4 9 8 20 8 11 0 20 -4 20 -8z m30 2 c0 -5 -4 -10 -10 -10 -5 0 -10
5 -10 10 0 6 5 10 10 10 6 0 10 -4 10 -10z m50 0 c0 -5 -4 -10 -10 -10 -5 0
-10 5 -10 10 0 6 5 10 10 10 6 0 10 -4 10 -10z m70 -1 c0 -11 -30 -12 -48 0
-9 5 -3 8 17 9 17 0 31 -4 31 -9z m40 3 c0 -5 -7 -9 -15 -9 -8 0 -15 4 -15 9
0 4 7 8 15 8 8 0 15 -4 15 -8z m30 -2 c0 -5 -4 -10 -10 -10 -5 0 -10 5 -10 10
0 6 5 10 10 10 6 0 10 -4 10 -10z m-320 -70 c0 -5 -2 -10 -4 -10 -3 0 -8 5
-11 10 -3 6 -1 10 4 10 6 0 11 -4 11 -10z m213 3 c-7 -2 -19 -2 -25 0 -7 3 -2
5 12 5 14 0 19 -2 13 -5z m662 -53 c3 -5 1 -19 -5 -29 -14 -26 -60 -76 -60
-66 0 5 -6 0 -14 -10 -8 -12 -19 -16 -31 -12 -16 7 -16 9 0 35 18 28 85 91 97
92 4 0 10 -4 13 -10z m-825 -12 c0 -5 -13 -8 -30 -8 -16 0 -30 4 -30 9 0 5 14
8 30 7 17 0 30 -4 30 -8z m40 4 c0 -5 -7 -9 -15 -9 -8 0 -15 4 -15 9 0 4 7 8
15 8 8 0 15 -4 15 -8z m90 4 c0 -3 -4 -8 -10 -11 -5 -3 -10 -1 -10 4 0 6 5 11
10 11 6 0 10 -2 10 -4z m100 -6 c0 -5 -7 -10 -15 -10 -8 0 -15 5 -15 10 0 6 7
10 15 10 8 0 15 -4 15 -10z m2066 -78 c-7 -7 -46 9 -46 18 0 5 11 4 25 -2 14
-6 23 -13 21 -16z m149 -52 c-3 -5 -12 -10 -18 -10 -7 0 -6 4 3 10 19 12 23
12 15 0z m-1828 -137 c-4 -3 0 -14 8 -23 13 -14 13 -19 3 -23 -7 -2 -19 2 -26
9 -7 8 -8 14 -3 14 6 0 8 7 5 15 -4 8 -1 15 7 15 7 0 9 -3 6 -7z m-648 -522
c8 0 11 -4 7 -8 -9 -10 -76 -11 -76 -3 0 12 11 17 33 15 12 -1 28 -3 36 -4z
m2290 -122 c-16 -10 -23 -4 -14 10 3 6 11 8 17 5 6 -4 5 -9 -3 -15z m-574
-142 c33 -9 36 -12 17 -15 -33 -5 -162 18 -162 29 0 11 84 3 145 -14z m-363
-69 c-7 -7 -12 -8 -12 -2 0 14 12 26 19 19 2 -3 -1 -11 -7 -17z m661 -90 c11
-7 -47 -68 -64 -68 -6 0 -27 -15 -47 -34 -20 -19 -52 -46 -69 -61 l-33 -27 0
29 c0 22 8 33 33 48 17 10 33 18 34 17 2 -1 23 11 48 26 30 18 51 40 63 65 9
21 18 33 21 25 2 -7 9 -16 14 -20z m-323 -55 c-12 -21 -33 -47 -48 -57 -21
-16 -19 -11 10 22 21 23 41 54 44 69 4 15 9 22 11 16 3 -7 -5 -30 -17 -50z
m727 1 c-3 -3 -12 -4 -19 -1 -8 3 -5 6 6 6 11 1 17 -2 13 -5z m-940 -219 c9
-25 -4 -29 -17 -6 -7 15 -7 21 0 21 6 0 13 -7 17 -15z m790 -51 c-3 -3 -12 -4
-19 -1 -8 3 -5 6 6 6 11 1 17 -2 13 -5z m159 -25 c4 -8 1 -8 -14 0 -12 6 -24
16 -28 22 -4 8 -1 8 14 0 12 -6 24 -16 28 -22z m-1239 6 c0 -12 -3 -12 -16 -3
-9 7 -18 14 -20 15 -2 2 5 3 16 3 11 0 20 -7 20 -15z"/>
<path d="M1077 2263 c-15 -14 -7 -43 12 -43 24 0 33 13 25 34 -6 16 -25 21
-37 9z"/>
<path d="M920 2246 c0 -17 5 -26 16 -26 10 0 14 7 12 22 -5 32 -28 35 -28 4z"/>
<path d="M1266 1015 c-11 -8 -17 -17 -14 -20 2 -3 13 4 23 15 21 23 18 25 -9
5z"/>
<path d="M796 970 c13 -12 74 -26 109 -26 17 1 33 -2 36 -7 3 -4 30 -10 60
-14 30 -3 51 -2 47 2 -4 4 -21 9 -38 11 -16 2 -40 10 -53 18 -24 15 -176 31
-161 16z"/>
<path d="M795 891 c8 -8 34 -16 57 -17 24 0 45 -2 48 -4 3 -1 10 -1 15 1 6 1
37 5 69 8 86 9 80 25 -9 29 -68 2 -97 -8 -62 -21 7 -4 6 -6 -5 -6 -9 -1 -18 5
-20 11 -3 8 -24 13 -56 13 -45 0 -50 -1 -37 -14z"/>
<path d="M1170 860 c-9 -6 -10 -10 -3 -10 6 0 15 5 18 10 8 12 4 12 -15 0z"/>
<path d="M1256 611 c-4 -7 -5 -15 -2 -18 9 -9 19 4 14 18 -4 11 -6 11 -12 0z"/>
<path d="M4002 2897 c9 -6 25 -17 35 -24 17 -12 17 -12 -1 -6 -16 5 -18 3 -13
-11 5 -11 -2 -25 -18 -40 -14 -13 -25 -28 -25 -35 0 -14 1 -14 -50 4 -24 8
-52 13 -62 9 -15 -5 -7 -12 39 -34 70 -34 67 -36 -15 -10 -75 23 -126 27 -77
6 17 -7 33 -11 38 -9 4 2 7 -1 7 -7 0 -7 -6 -10 -14 -7 -8 3 -17 3 -20 -1 -7
-6 -46 -11 -46 -5 0 2 9 7 21 11 14 6 3 8 -35 8 -55 0 -56 0 -62 -33 -3 -18
-10 -31 -14 -28 -4 3 -11 -2 -14 -11 -9 -23 -8 -24 17 -25 18 -1 19 -2 3 -6
-14 -4 -5 -13 40 -44 64 -42 66 -51 4 -19 -41 21 -106 80 -127 115 -11 19 -12
19 -12 1 -1 -22 124 -145 147 -146 13 -1 43 -50 37 -60 -9 -14 9 -12 24 3 11
10 11 8 0 -10 -7 -12 -17 -21 -23 -20 -5 1 -11 -7 -13 -18 -3 -16 -2 -17 6 -5
19 27 22 2 5 -36 -16 -38 -17 -38 -23 -14 -5 17 -9 21 -15 12 -11 -18 -28 -15
-25 6 2 28 -1 38 -9 25 -4 -7 -19 -14 -32 -15 -20 -3 -29 6 -52 49 -31 56 -47
158 -23 149 10 -3 10 1 1 19 l-11 24 -8 -22 c-12 -31 -2 -128 17 -165 9 -18
16 -35 15 -38 0 -4 5 -10 13 -15 7 -5 13 -12 13 -16 1 -37 93 -106 178 -133
20 -6 37 -16 37 -22 0 -7 4 -7 13 0 14 12 34 11 58 -3 13 -8 14 -16 8 -34 -7
-18 -12 -21 -23 -12 -11 9 -15 8 -21 -6 -5 -10 -7 -22 -6 -27 1 -4 -4 -14 -10
-22 -16 -20 -4 -17 17 4 15 15 17 15 12 1 -4 -9 -2 -21 4 -27 6 -6 6 -12 -1
-16 -6 -4 -11 0 -11 11 0 15 -3 14 -19 -6 -14 -18 -20 -21 -26 -11 -5 8 -4 11
2 7 6 -4 10 18 10 56 1 58 0 59 -8 22 -7 -35 -73 -235 -95 -289 -6 -16 -4 -18
9 -13 9 3 19 2 22 -3 4 -6 -5 -10 -19 -10 -29 0 -35 -16 -8 -23 11 -3 9 -5 -8
-6 -14 0 -31 -10 -37 -21 -11 -16 -10 -18 2 -14 8 4 15 1 15 -5 0 -6 -4 -11
-10 -11 -14 0 -24 -48 -12 -63 5 -6 13 -23 17 -37 4 -14 16 -36 26 -49 10 -13
16 -27 13 -32 -3 -5 0 -9 7 -9 8 0 9 10 5 32 -5 25 -4 30 5 21 7 -7 12 -26 12
-43 0 -18 5 -29 11 -27 6 3 10 10 8 16 -2 9 3 9 19 1 23 -13 41 -4 19 10 -11
7 -11 11 -1 24 8 9 20 16 28 16 13 0 13 3 3 15 -7 8 -8 15 -3 15 9 0 10 18 4
53 0 4 -8 7 -17 7 -8 0 -13 -4 -9 -9 3 -5 1 -12 -4 -15 -8 -5 -8 15 -1 34 1 3
2 8 1 13 -2 11 13 8 37 -9 12 -8 20 -20 17 -25 -4 -5 -1 -9 4 -9 19 0 12 21
-18 51 -30 29 -24 52 6 27 15 -11 16 -10 11 9 -3 12 -3 22 1 21 37 -4 40 14 6
47 -16 17 -20 25 -10 25 17 0 20 26 5 35 -6 4 -8 15 -5 26 4 11 2 19 -5 19 -6
0 -9 -4 -5 -9 8 -14 -31 -23 -66 -16 -31 7 -33 15 -6 19 25 3 68 36 79 62 l11
24 25 -22 c20 -18 24 -19 19 -5 -8 21 2 49 14 41 12 -7 -1 27 -17 46 -14 16
-10 22 36 50 12 7 11 12 -5 30 -11 12 -20 31 -22 43 -2 18 5 24 39 35 42 13
131 80 147 111 8 15 3 17 -43 17 -29 1 -61 6 -72 12 -15 9 -4 11 57 11 83 -2
99 3 99 29 0 11 -3 13 -8 6 -12 -20 -68 -26 -114 -13 -27 8 -36 14 -25 17 10
2 17 11 16 20 -3 21 20 77 27 69 10 -9 32 17 27 30 -8 21 11 14 29 -10 9 -12
28 -35 42 -52 l24 -30 8 29 c11 44 -2 156 -25 208 -27 64 -94 128 -161 156
-30 12 -48 16 -38 9z m-272 -214 c-11 -17 -11 -17 -6 0 3 10 7 26 7 35 1 15 2
15 6 0 2 -10 -1 -25 -7 -35z m50 17 c0 -5 -6 -12 -12 -16 -7 -4 -10 -4 -6 1 4
4 3 14 -4 22 -8 11 -7 12 6 7 9 -3 16 -10 16 -14z m426 -117 c-3 9 -1 17 3 17
5 0 9 -15 8 -34 -1 -44 -8 -39 -57 37 l-41 62 47 -50 c25 -27 44 -42 40 -32z
m-153 -28 c-3 -9 -8 -14 -10 -11 -3 3 -2 9 2 15 9 16 15 13 8 -4z m-203 -140
c0 -2 -7 -2 -15 1 -9 4 -16 -3 -21 -21 -9 -36 -17 -24 -9 14 6 27 9 29 26 21
10 -6 19 -13 19 -15z m64 -13 c3 -5 1 -22 -4 -38 l-10 -29 4 28 c4 31 -8 36
-23 10 -6 -10 -11 -15 -11 -10 0 11 24 47 32 47 4 0 9 -4 12 -8z m-234 -27
c13 -14 21 -25 18 -25 -2 0 -15 11 -28 25 -13 14 -21 25 -18 25 2 0 15 -11 28
-25z m75 -22 c11 -7 16 -13 12 -13 -10 0 -87 51 -87 57 0 5 27 -11 75 -44z
m350 29 c-3 -3 -11 0 -18 7 -9 10 -8 11 6 5 10 -3 15 -9 12 -12z m25 -7 c-7
-8 -17 -15 -22 -15 -11 0 14 29 26 30 5 0 3 -7 -4 -15z m-273 -313 c-2 -4 -11
-24 -21 -44 -24 -52 -27 -47 -8 12 8 27 19 47 24 44 5 -3 7 -8 5 -12z m-32
-133 c-4 -6 -1 -10 6 -8 26 3 39 -1 39 -12 0 -8 -12 -9 -37 -4 -46 8 -52 13
-33 25 20 13 33 12 25 -1z m54 -53 c-12 -10 -59 -15 -59 -6 0 5 14 10 32 10
17 0 29 -2 27 -4z m-35 -51 c3 -9 0 -15 -9 -15 -16 0 -27 14 -18 24 10 10 21
7 27 -9z m-5 -44 c11 -7 9 -11 -9 -21 -18 -10 -24 -9 -31 1 -5 8 -3 17 4 21
15 10 19 10 36 -1z m31 -101 c0 -11 -4 -20 -10 -20 -5 0 -10 9 -10 20 0 11 5
20 10 20 6 0 10 -9 10 -20z m-34 -26 c-3 -9 -6 -21 -7 -27 0 -7 -4 -3 -8 8 -9
22 -5 35 11 35 5 0 7 -7 4 -16z"/>
<path d="M4840 2476 c0 -223 3 -407 8 -409 4 -3 43 6 87 19 92 27 108 29 103
12 -3 -7 -47 -31 -99 -53 l-94 -41 -3 -407 -2 -407 200 0 200 0 0 845 0 845
-200 0 -200 0 0 -404z m170 202 c0 -12 3 -18 8 -14 4 4 7 13 7 19 0 7 8 13 18
15 12 2 17 -3 18 -20 l2 -23 4 23 c3 14 12 22 24 22 17 0 20 -6 17 -42 l-3
-43 -62 -3 -63 -3 0 46 c0 33 4 45 15 45 9 0 15 -9 15 -22z m100 -103 c0 -14
-9 -30 -20 -37 -25 -16 -26 -26 -3 -24 12 0 19 -7 21 -21 3 -22 0 -23 -62 -23
-64 0 -66 1 -66 26 0 21 4 25 20 21 11 -3 20 -1 20 3 0 5 -9 12 -20 15 -13 4
-20 15 -20 31 0 28 3 29 36 7 24 -15 27 -15 52 5 35 27 42 27 42 -3z m0 -150
c0 -24 -2 -25 -65 -25 -63 0 -65 1 -65 25 0 24 2 25 65 25 63 0 65 -1 65 -25z
m0 -69 c0 -17 -9 -27 -30 -36 -38 -16 -39 -29 -3 -27 22 2 29 -3 31 -20 3 -22
0 -23 -62 -23 -64 0 -66 1 -66 25 0 17 9 29 30 40 34 17 39 27 13 24 -34 -3
-43 1 -43 21 0 18 7 20 65 20 62 0 65 -1 65 -24z"/>
<path d="M3680 2794 c-20 -8 -42 -24 -49 -36 -12 -19 -10 -19 18 5 17 14 48
29 69 32 63 11 68 13 32 13 -19 1 -51 -6 -70 -14z"/>
<path d="M3818 2793 c7 -3 16 -2 19 1 4 3 -2 6 -13 5 -11 0 -14 -3 -6 -6z"/>
<path d="M2660 2775 c-11 -13 -10 -14 6 -8 17 6 18 5 4 -12 -14 -17 -14 -18 7
-7 12 7 25 17 29 24 5 7 3 8 -6 3 -7 -4 -15 -2 -20 4 -5 9 -10 8 -20 -4z"/>
<path d="M2584 2596 c-3 -8 -4 -23 -1 -33 4 -16 6 -15 12 5 4 12 15 22 24 22
14 0 14 2 1 10 -21 13 -30 12 -36 -4z"/>
<path d="M2524 2509 c-35 -70 -23 -74 14 -5 17 31 26 56 21 56 -5 0 -20 -23
-35 -51z"/>
<path d="M2625 2510 c-3 -5 1 -10 10 -10 9 0 13 5 10 10 -3 6 -8 10 -10 10 -2
0 -7 -4 -10 -10z"/>
<path d="M2546 2441 c-15 -28 -26 -56 -24 -62 2 -6 16 12 32 40 15 28 26 56
24 62 -2 6 -16 -12 -32 -40z"/>
<path d="M3680 2446 c0 -9 5 -16 10 -16 6 0 10 4 10 9 0 6 -4 13 -10 16 -5 3
-10 -1 -10 -9z"/>
<path d="M2570 2365 c-13 -14 -21 -27 -18 -31 7 -6 48 35 48 48 0 13 -5 10
-30 -17z"/>
<path d="M2587 2323 l-17 -38 25 28 c25 28 32 47 17 47 -5 0 -16 -17 -25 -37z"/>
<path d="M3913 2012 c-9 -15 -8 -19 2 -19 8 0 16 9 18 19 3 10 2 18 -2 18 -3
0 -11 -8 -18 -18z"/>
<path d="M4415 1960 c-4 -7 3 -8 22 -4 38 9 42 14 10 14 -14 0 -29 -5 -32 -10z"/>
<path d="M4606 1891 c-4 -5 3 -7 14 -4 23 6 26 13 6 13 -8 0 -17 -4 -20 -9z"/>
<path d="M4458 1828 c-16 -5 -28 -13 -28 -18 0 -7 54 14 69 27 8 6 -13 2 -41
-9z"/>
<path d="M3840 1569 c0 -5 5 -7 10 -4 6 3 10 8 10 11 0 2 -4 4 -10 4 -5 0 -10
-5 -10 -11z"/>
<path d="M3826 1493 c-6 -14 -5 -15 5 -6 7 7 10 15 7 18 -3 3 -9 -2 -12 -12z"/>
<path d="M4420 1200 c0 -5 5 -10 10 -10 6 0 10 5 10 10 0 6 -4 10 -10 10 -5 0
-10 -4 -10 -10z"/>
<path d="M4847 885 c-8 -18 11 -31 25 -17 11 11 3 32 -12 32 -4 0 -10 -7 -13
-15z"/>
<path d="M4890 880 c0 -13 5 -20 13 -17 6 2 12 10 12 17 0 7 -6 15 -12 18 -8
2 -13 -5 -13 -18z"/>
<path d="M4960 885 c-11 -13 -15 -13 -21 -3 -7 10 -9 9 -9 -3 0 -12 10 -16 45
-15 29 0 45 4 45 12 0 18 -17 26 -23 12 -4 -10 -7 -10 -15 0 -7 10 -11 10 -22
-3z"/>
<path d="M5035 887 c-4 -10 -5 -21 -1 -24 10 -10 18 4 13 24 -4 17 -4 17 -12
0z"/>
<path d="M5167 886 c-6 -14 1 -26 14 -26 4 0 7 9 6 20 -1 23 -12 26 -20 6z"/>
<path d="M5080 875 c0 -8 6 -15 14 -15 8 0 16 7 20 15 4 10 -1 15 -14 15 -11
0 -20 -7 -20 -15z"/>
<path d="M5126 875 c-3 -9 0 -15 9 -15 8 0 15 7 15 15 0 8 -4 15 -9 15 -5 0
-11 -7 -15 -15z"/>
<path d="M5202 878 c6 -18 28 -21 28 -4 0 9 -7 16 -16 16 -9 0 -14 -5 -12 -12z"/>
<path d="M5245 880 c-8 -13 -1 -24 14 -19 6 3 7 10 2 18 -6 10 -10 10 -16 1z"/>
<path d="M4846 775 c-4 -10 1 -15 14 -15 13 0 18 5 14 15 -4 8 -10 15 -14 15
-4 0 -10 -7 -14 -15z"/>
<path d="M4880 785 c0 -20 17 -35 33 -29 19 7 22 20 7 29 -5 3 -10 -2 -10 -11
0 -16 -1 -16 -15 2 -8 10 -14 15 -15 9z"/>
<path d="M4940 776 c0 -8 5 -18 10 -21 6 -3 10 3 10 14 0 12 -4 21 -10 21 -5
0 -10 -6 -10 -14z"/>
<path d="M4976 782 c-2 -4 0 -14 5 -22 8 -13 10 -13 18 0 10 15 6 30 -9 30 -5
0 -11 -4 -14 -8z"/>
<path d="M5016 775 c-3 -9 0 -15 9 -15 16 0 20 16 6 24 -5 3 -11 -1 -15 -9z"/>
<path d="M5096 783 c-12 -12 -6 -33 9 -33 8 0 15 6 15 14 0 17 -14 28 -24 19z"/>
<path d="M5171 774 c0 -11 3 -14 6 -6 3 7 2 16 -1 19 -3 4 -6 -2 -5 -13z"/>
<path d="M5190 770 c0 -11 5 -20 10 -20 6 0 10 9 10 20 0 11 -4 20 -10 20 -5
0 -10 -9 -10 -20z"/>
<path d="M5260 775 c0 -8 5 -15 10 -15 6 0 10 7 10 15 0 8 -4 15 -10 15 -5 0
-10 -7 -10 -15z"/>
<path d="M5296 782 c-2 -4 -1 -14 5 -22 7 -12 9 -10 9 8 0 23 -5 28 -14 14z"/>
<path d="M5370 773 c0 -7 7 -13 15 -13 8 0 15 6 15 13 0 8 -7 14 -15 14 -8 0
-15 -6 -15 -14z"/>
<path d="M5132 768 c2 -5 8 -9 13 -9 5 0 11 4 13 9 1 5 -4 9 -13 9 -9 0 -14
-4 -13 -9z"/>
<path d="M5327 764 c3 -7 9 -14 14 -14 14 0 10 17 -5 23 -10 4 -13 1 -9 -9z"/>
<path d="M4850 659 c0 -11 5 -17 10 -14 6 3 10 13 10 21 0 8 -4 14 -10 14 -5
0 -10 -9 -10 -21z"/>
<path d="M4882 664 c4 -21 22 -23 26 -1 2 10 -3 17 -13 17 -10 0 -15 -6 -13
-16z"/>
<path d="M4920 665 c0 -8 5 -15 10 -15 6 0 10 7 10 15 0 8 -4 15 -10 15 -5 0
-10 -7 -10 -15z"/>
<path d="M4950 664 c0 -8 5 -12 10 -9 6 3 10 10 10 16 0 5 -4 9 -10 9 -5 0
-10 -7 -10 -16z"/>
<path d="M4984 669 c-3 -6 -1 -16 5 -22 8 -8 11 -5 11 11 0 24 -5 28 -16 11z"/>
<path d="M5020 666 c0 -9 7 -16 16 -16 17 0 14 22 -4 28 -7 2 -12 -3 -12 -12z"/>
<path d="M5060 657 c0 -16 3 -18 11 -10 6 6 17 9 24 7 6 -3 12 2 12 9 0 9 -10
15 -24 15 -17 0 -23 -6 -23 -21z"/>
<path d="M5120 666 c0 -9 5 -16 10 -16 6 0 10 4 10 9 0 6 -4 13 -10 16 -5 3
-10 -1 -10 -9z"/>
<path d="M5150 665 c0 -8 5 -15 10 -15 6 0 10 7 10 15 0 8 -4 15 -10 15 -5 0
-10 -7 -10 -15z"/>
<path d="M5180 665 c0 -8 5 -15 10 -15 6 0 10 7 10 15 0 8 -4 15 -10 15 -5 0
-10 -7 -10 -15z"/>
<path d="M427 583 c-4 -27 -5 -27 -12 -5 -4 12 -13 22 -20 22 -8 0 -16 -10
-18 -22 l-4 -23 -2 23 c-1 15 -7 22 -21 22 -17 0 -20 -7 -20 -40 0 -25 5 -40
13 -41 6 -1 35 -2 62 -3 l50 -1 0 44 c0 50 -21 68 -28 24z"/>
<path d="M4847 573 c-9 -15 6 -28 34 -29 20 -1 25 2 22 15 -5 19 -33 25 -33 7
0 -6 -4 -5 -9 3 -5 7 -11 9 -14 4z"/>
<path d="M4910 573 c0 -5 5 -15 10 -23 8 -12 10 -11 10 8 0 12 -4 22 -10 22
-5 0 -10 -3 -10 -7z"/>
<path d="M4945 570 c-4 -6 -3 -16 3 -22 6 -6 12 -6 17 2 4 6 3 16 -3 22 -6 6
-12 6 -17 -2z"/>
<path d="M4982 560 c0 -14 2 -19 5 -12 2 6 2 18 0 25 -3 6 -5 1 -5 -13z"/>
<path d="M5004 569 c-3 -6 -2 -15 3 -20 5 -5 9 -1 10 11 2 22 -2 25 -13 9z"/>
<path d="M5036 571 c-5 -7 -3 -18 3 -24 14 -14 20 -6 11 17 -5 15 -9 16 -14 7z"/>
<path d="M5070 561 c0 -12 5 -21 10 -21 6 0 10 6 10 14 0 8 -4 18 -10 21 -5 3
-10 -3 -10 -14z"/>
<path d="M5125 567 c-4 -10 -5 -21 -1 -24 10 -10 18 4 13 24 -4 17 -4 17 -12
0z"/>
<path d="M5157 573 c-3 -5 -2 -15 2 -22 7 -10 10 -10 16 -1 4 6 3 16 -3 22 -5
5 -12 6 -15 1z"/>
<path d="M5196 565 c-8 -22 -8 -22 9 -22 17 0 18 6 6 25 -7 11 -10 10 -15 -3z"/>
<path d="M5285 570 c-3 -5 -1 -10 5 -10 6 0 8 -4 5 -10 -3 -5 -1 -10 4 -10 13
0 14 27 2 35 -5 3 -12 1 -16 -5z"/>
<path d="M5326 564 c-8 -20 -4 -25 11 -16 7 4 9 13 4 21 -6 10 -10 9 -15 -5z"/>
<path d="M5230 554 c0 -8 5 -12 10 -9 6 3 10 10 10 16 0 5 -4 9 -10 9 -5 0
-10 -7 -10 -16z"/>
<path d="M5261 554 c0 -11 3 -14 6 -6 3 7 2 16 -1 19 -3 4 -6 -2 -5 -13z"/>
<path d="M3780 260 l0 -260 225 0 225 0 -1 263 c0 155 -4 254 -9 242 -7 -17
-9 -17 -9 -2 -1 16 -18 17 -216 17 l-215 0 0 -260z m435 218 c6 -4 -3 -8 -18
-8 -23 0 -26 2 -15 14 7 8 15 11 18 8 3 -4 10 -10 15 -14z m2 -60 c-3 -8 -6
-5 -6 6 -1 11 2 17 5 13 3 -3 4 -12 1 -19z m3 -232 c0 -3 -4 -8 -10 -11 -5 -3
-10 -1 -10 4 0 6 5 11 10 11 6 0 10 -2 10 -4z"/>
<path d="M330 476 c0 -17 9 -30 28 -40 l27 -15 -27 -1 c-23 0 -28 -4 -28 -25
0 -24 2 -25 65 -25 63 0 65 1 65 25 0 19 -5 25 -22 26 l-23 0 23 11 c15 8 22
20 22 41 l0 29 -32 -20 -32 -21 -33 20 -33 21 0 -26z"/>
<path d="M2542 465 c0 -16 2 -22 5 -12 2 9 2 23 0 30 -3 6 -5 -1 -5 -18z"/>
<path d="M4849 478 c-7 -24 -5 -38 7 -38 8 0 14 9 14 20 0 11 -4 20 -10 20 -5
0 -10 -1 -11 -2z"/>
<path d="M4977 473 c-7 -11 10 -40 18 -31 4 4 3 14 -3 24 -5 9 -12 12 -15 7z"/>
<path d="M5027 465 c-4 -8 -3 -16 1 -19 11 -6 52 -2 52 7 0 4 0 12 0 19 0 6
-7 4 -18 -5 -23 -21 -33 -22 -26 -2 4 8 4 15 1 15 -3 0 -7 -7 -10 -15z"/>
<path d="M5194 466 c-8 -22 3 -33 18 -18 9 9 9 15 0 24 -9 9 -13 7 -18 -6z"/>
<path d="M5274 466 c-8 -22 3 -33 18 -18 9 9 9 15 0 24 -9 9 -13 7 -18 -6z"/>
<path d="M4880 454 c0 -14 3 -14 15 -4 8 7 15 8 15 2 0 -11 48 -13 55 -1 9 14
-15 21 -30 9 -11 -9 -15 -9 -15 -1 0 6 -9 11 -20 11 -12 0 -20 -7 -20 -16z"/>
<path d="M5100 455 c0 -8 7 -15 15 -15 8 0 15 7 15 15 0 8 -7 15 -15 15 -8 0
-15 -7 -15 -15z"/>
<path d="M5143 458 c2 -7 10 -13 17 -13 7 0 15 6 18 13 2 7 -5 12 -18 12 -13
0 -20 -5 -17 -12z"/>
<path d="M5230 454 c0 -17 22 -14 28 4 2 7 -3 12 -12 12 -9 0 -16 -7 -16 -16z"/>
<path d="M4847 351 c3 -12 10 -21 15 -21 13 0 6 32 -9 37 -7 3 -9 -3 -6 -16z"/>
<path d="M4877 349 c4 -13 9 -17 15 -11 11 11 3 32 -12 32 -4 0 -6 -9 -3 -21z"/>
<path d="M4907 349 c4 -13 9 -17 15 -11 11 11 3 32 -12 32 -4 0 -6 -9 -3 -21z"/>
<path d="M4940 350 c0 -11 5 -20 10 -20 6 0 10 9 10 20 0 11 -4 20 -10 20 -5
0 -10 -9 -10 -20z"/>
<path d="M4977 356 c-6 -15 1 -26 15 -26 11 0 10 27 -1 34 -5 3 -11 0 -14 -8z"/>
<path d="M5010 356 c0 -8 5 -18 10 -21 6 -3 10 3 10 14 0 12 -4 21 -10 21 -5
0 -10 -6 -10 -14z"/>
<path d="M5046 355 c-3 -9 0 -15 9 -15 16 0 20 16 6 24 -5 3 -11 -1 -15 -9z"/>
<path d="M5100 349 c0 -12 5 -16 15 -13 8 4 15 12 15 18 0 7 -7 13 -15 13 -8
0 -15 -8 -15 -18z"/>
<path d="M5146 355 c-3 -9 0 -15 9 -15 16 0 20 16 6 24 -5 3 -11 -1 -15 -9z"/>
<path d="M5180 356 c0 -8 5 -18 10 -21 6 -3 10 3 10 14 0 12 -4 21 -10 21 -5
0 -10 -6 -10 -14z"/>
<path d="M5215 360 c-7 -11 2 -30 13 -30 4 0 8 9 8 20 0 21 -11 26 -21 10z"/>
<path d="M5250 350 c0 -11 4 -20 9 -20 6 0 9 9 8 20 -1 11 -5 20 -9 20 -4 0
-8 -9 -8 -20z"/>
<path d="M5280 354 c0 -6 7 -14 15 -18 10 -3 15 1 15 13 0 10 -7 18 -15 18 -8
0 -15 -6 -15 -13z"/>
<path d="M5325 360 c-8 -13 -1 -24 14 -19 6 3 7 10 2 18 -6 10 -10 10 -16 1z"/>
<path d="M5360 351 c0 -12 5 -21 10 -21 6 0 10 6 10 14 0 8 -4 18 -10 21 -5 3
-10 -3 -10 -14z"/>
<path d="M330 325 c0 -24 2 -25 65 -25 63 0 65 1 65 25 0 24 -2 25 -65 25 -63
0 -65 -1 -65 -25z"/>
<path d="M2533 293 c9 -2 23 -2 30 0 6 3 -1 5 -18 5 -16 0 -22 -2 -12 -5z"/>
<path d="M330 260 c0 -16 7 -20 38 -20 l37 -1 -37 -20 c-28 -14 -38 -26 -38
-44 0 -24 3 -25 65 -25 63 0 65 1 65 26 0 24 -3 26 -31 22 l-31 -5 23 18 c13
10 27 19 32 19 4 0 7 11 7 25 0 24 -2 25 -65 25 -58 0 -65 -2 -65 -20z"/>
<path d="M4890 255 c-11 -13 -15 -13 -22 -3 -6 10 -10 10 -18 -2 -16 -24 -12
-30 14 -20 15 5 27 5 34 -2 7 -7 10 -2 9 16 -2 31 -1 30 -17 11z"/>
<path d="M4923 259 c-6 -6 -9 -18 -6 -25 8 -23 21 -16 21 11 0 29 0 29 -15 14z"/>
<path d="M4952 244 c4 -21 22 -23 26 -1 2 10 -3 17 -13 17 -10 0 -15 -6 -13
-16z"/>
<path d="M4990 245 c0 -8 9 -15 20 -15 11 0 20 7 20 15 0 8 -9 15 -20 15 -11
0 -20 -7 -20 -15z"/>
<path d="M5040 245 c0 -8 5 -15 10 -15 6 0 10 7 10 15 0 8 -4 15 -10 15 -5 0
-10 -7 -10 -15z"/>
<path d="M5070 245 c0 -8 7 -15 15 -15 9 0 12 6 9 15 -4 8 -10 15 -15 15 -5 0
-9 -7 -9 -15z"/>
<path d="M5110 245 c0 -8 7 -15 15 -15 8 0 15 7 15 15 0 8 -7 15 -15 15 -8 0
-15 -7 -15 -15z"/>
<path d="M5160 248 c0 -9 5 -20 10 -23 13 -8 13 5 0 25 -8 13 -10 13 -10 -2z"/>
<path d="M5196 253 c-11 -11 -6 -23 9 -23 8 0 15 4 15 9 0 13 -16 22 -24 14z"/>
<path d="M5230 245 c0 -8 4 -15 8 -15 5 0 9 7 9 15 0 8 -4 15 -9 15 -4 0 -8
-7 -8 -15z"/>
<path d="M5260 253 c0 -19 20 -26 35 -13 11 9 15 9 15 1 0 -6 5 -11 11 -11 6
0 9 6 7 13 -6 15 -48 18 -48 3 0 -6 -5 -4 -10 4 -6 9 -10 10 -10 3z"/>
<path d="M2430 240 c0 -5 12 -10 26 -10 14 0 23 4 19 10 -3 6 -15 10 -26 10
-10 0 -19 -4 -19 -10z"/>
<path d="M2458 163 c7 -3 16 -2 19 1 4 3 -2 6 -13 5 -11 0 -14 -3 -6 -6z"/>
<path d="M4632 30 c0 -19 2 -27 5 -17 2 9 2 25 0 35 -3 9 -5 1 -5 -18z"/>
</g>
</svg>
